<mxfile host="Electron" agent="Mozilla/5.0 (Windows NT 10.0; Win64; x64) AppleWebKit/537.36 (KHTML, like Gecko) draw.io/24.7.17 Chrome/128.0.6613.36 Electron/32.0.1 Safari/537.36" version="24.7.17">
  <diagram name="Page-1" id="nk33O3myFzExoFOTdXr2">
    <mxGraphModel dx="2025" dy="1207" grid="1" gridSize="10" guides="1" tooltips="1" connect="1" arrows="1" fold="1" page="1" pageScale="1" pageWidth="850" pageHeight="1100" math="0" shadow="0">
      <root>
        <mxCell id="0" />
        <mxCell id="1" parent="0" />
        <mxCell id="7euLMkScER6ISMIBtLAG-1" style="edgeStyle=orthogonalEdgeStyle;rounded=0;orthogonalLoop=1;jettySize=auto;html=1;" parent="1" source="UBjv-P3hsI7ne-E2DAJY-2" target="7euLMkScER6ISMIBtLAG-2" edge="1">
          <mxGeometry relative="1" as="geometry">
            <mxPoint x="290" y="65" as="targetPoint" />
          </mxGeometry>
        </mxCell>
        <mxCell id="UBjv-P3hsI7ne-E2DAJY-2" value="START" style="rounded=1;whiteSpace=wrap;html=1;arcSize=50;" parent="1" vertex="1">
          <mxGeometry x="140" y="50" width="80" height="30" as="geometry" />
        </mxCell>
        <mxCell id="UBjv-P3hsI7ne-E2DAJY-3" value="END" style="rounded=1;whiteSpace=wrap;html=1;arcSize=50;" parent="1" vertex="1">
          <mxGeometry x="520" y="840" width="80" height="30" as="geometry" />
        </mxCell>
        <mxCell id="7euLMkScER6ISMIBtLAG-3" style="edgeStyle=orthogonalEdgeStyle;rounded=0;orthogonalLoop=1;jettySize=auto;html=1;" parent="1" source="7euLMkScER6ISMIBtLAG-2" target="7euLMkScER6ISMIBtLAG-4" edge="1">
          <mxGeometry relative="1" as="geometry">
            <mxPoint x="335" y="120" as="targetPoint" />
          </mxGeometry>
        </mxCell>
        <mxCell id="7euLMkScER6ISMIBtLAG-2" value="ใส่คะแนน" style="shape=parallelogram;perimeter=parallelogramPerimeter;whiteSpace=wrap;html=1;fixedSize=1;" parent="1" vertex="1">
          <mxGeometry x="280" y="52.5" width="110" height="25" as="geometry" />
        </mxCell>
        <mxCell id="7euLMkScER6ISMIBtLAG-7" value="" style="edgeStyle=orthogonalEdgeStyle;rounded=0;orthogonalLoop=1;jettySize=auto;html=1;" parent="1" source="7euLMkScER6ISMIBtLAG-4" target="7euLMkScER6ISMIBtLAG-6" edge="1">
          <mxGeometry relative="1" as="geometry" />
        </mxCell>
        <mxCell id="7euLMkScER6ISMIBtLAG-23" value="" style="edgeStyle=orthogonalEdgeStyle;rounded=0;orthogonalLoop=1;jettySize=auto;html=1;" parent="1" source="7euLMkScER6ISMIBtLAG-4" target="7euLMkScER6ISMIBtLAG-22" edge="1">
          <mxGeometry relative="1" as="geometry" />
        </mxCell>
        <mxCell id="7euLMkScER6ISMIBtLAG-4" value="คะแนน &amp;gt;= 80" style="rhombus;whiteSpace=wrap;html=1;" parent="1" vertex="1">
          <mxGeometry x="291.25" y="100" width="87.5" height="70" as="geometry" />
        </mxCell>
        <mxCell id="7euLMkScER6ISMIBtLAG-9" value="" style="edgeStyle=orthogonalEdgeStyle;rounded=0;orthogonalLoop=1;jettySize=auto;html=1;" parent="1" source="7euLMkScER6ISMIBtLAG-6" target="7euLMkScER6ISMIBtLAG-8" edge="1">
          <mxGeometry relative="1" as="geometry" />
        </mxCell>
        <mxCell id="7euLMkScER6ISMIBtLAG-25" value="" style="edgeStyle=orthogonalEdgeStyle;rounded=0;orthogonalLoop=1;jettySize=auto;html=1;" parent="1" source="7euLMkScER6ISMIBtLAG-6" target="7euLMkScER6ISMIBtLAG-24" edge="1">
          <mxGeometry relative="1" as="geometry" />
        </mxCell>
        <mxCell id="7euLMkScER6ISMIBtLAG-6" value="คะแนน &amp;gt;= 75" style="rhombus;whiteSpace=wrap;html=1;" parent="1" vertex="1">
          <mxGeometry x="291.25" y="190" width="87.5" height="70" as="geometry" />
        </mxCell>
        <mxCell id="7euLMkScER6ISMIBtLAG-13" value="" style="edgeStyle=orthogonalEdgeStyle;rounded=0;orthogonalLoop=1;jettySize=auto;html=1;" parent="1" source="7euLMkScER6ISMIBtLAG-8" target="7euLMkScER6ISMIBtLAG-12" edge="1">
          <mxGeometry relative="1" as="geometry" />
        </mxCell>
        <mxCell id="7euLMkScER6ISMIBtLAG-39" value="" style="edgeStyle=orthogonalEdgeStyle;rounded=0;orthogonalLoop=1;jettySize=auto;html=1;" parent="1" source="7euLMkScER6ISMIBtLAG-8" target="7euLMkScER6ISMIBtLAG-26" edge="1">
          <mxGeometry relative="1" as="geometry" />
        </mxCell>
        <mxCell id="7euLMkScER6ISMIBtLAG-8" value="คะแนน &amp;gt;= 70" style="rhombus;whiteSpace=wrap;html=1;" parent="1" vertex="1">
          <mxGeometry x="291.25" y="280" width="87.5" height="70" as="geometry" />
        </mxCell>
        <mxCell id="7euLMkScER6ISMIBtLAG-15" value="" style="edgeStyle=orthogonalEdgeStyle;rounded=0;orthogonalLoop=1;jettySize=auto;html=1;" parent="1" source="7euLMkScER6ISMIBtLAG-12" target="7euLMkScER6ISMIBtLAG-14" edge="1">
          <mxGeometry relative="1" as="geometry" />
        </mxCell>
        <mxCell id="7euLMkScER6ISMIBtLAG-38" value="" style="edgeStyle=orthogonalEdgeStyle;rounded=0;orthogonalLoop=1;jettySize=auto;html=1;" parent="1" source="7euLMkScER6ISMIBtLAG-12" target="7euLMkScER6ISMIBtLAG-27" edge="1">
          <mxGeometry relative="1" as="geometry" />
        </mxCell>
        <mxCell id="7euLMkScER6ISMIBtLAG-12" value="คะแนน &amp;gt;= 65" style="rhombus;whiteSpace=wrap;html=1;" parent="1" vertex="1">
          <mxGeometry x="291.25" y="370" width="87.5" height="70" as="geometry" />
        </mxCell>
        <mxCell id="7euLMkScER6ISMIBtLAG-17" value="" style="edgeStyle=orthogonalEdgeStyle;rounded=0;orthogonalLoop=1;jettySize=auto;html=1;" parent="1" source="7euLMkScER6ISMIBtLAG-14" target="7euLMkScER6ISMIBtLAG-16" edge="1">
          <mxGeometry relative="1" as="geometry" />
        </mxCell>
        <mxCell id="7euLMkScER6ISMIBtLAG-37" value="" style="edgeStyle=orthogonalEdgeStyle;rounded=0;orthogonalLoop=1;jettySize=auto;html=1;" parent="1" source="7euLMkScER6ISMIBtLAG-14" target="7euLMkScER6ISMIBtLAG-28" edge="1">
          <mxGeometry relative="1" as="geometry" />
        </mxCell>
        <mxCell id="7euLMkScER6ISMIBtLAG-14" value="คะแนน &amp;gt;= 60" style="rhombus;whiteSpace=wrap;html=1;" parent="1" vertex="1">
          <mxGeometry x="291.25" y="460" width="87.5" height="70" as="geometry" />
        </mxCell>
        <mxCell id="7euLMkScER6ISMIBtLAG-19" value="" style="edgeStyle=orthogonalEdgeStyle;rounded=0;orthogonalLoop=1;jettySize=auto;html=1;" parent="1" source="7euLMkScER6ISMIBtLAG-16" target="7euLMkScER6ISMIBtLAG-18" edge="1">
          <mxGeometry relative="1" as="geometry" />
        </mxCell>
        <mxCell id="7euLMkScER6ISMIBtLAG-36" value="" style="edgeStyle=orthogonalEdgeStyle;rounded=0;orthogonalLoop=1;jettySize=auto;html=1;" parent="1" source="7euLMkScER6ISMIBtLAG-16" target="7euLMkScER6ISMIBtLAG-29" edge="1">
          <mxGeometry relative="1" as="geometry" />
        </mxCell>
        <mxCell id="7euLMkScER6ISMIBtLAG-16" value="คะแนน &amp;gt;= 55" style="rhombus;whiteSpace=wrap;html=1;" parent="1" vertex="1">
          <mxGeometry x="291.25" y="550" width="87.5" height="70" as="geometry" />
        </mxCell>
        <mxCell id="7euLMkScER6ISMIBtLAG-21" value="" style="edgeStyle=orthogonalEdgeStyle;rounded=0;orthogonalLoop=1;jettySize=auto;html=1;" parent="1" source="7euLMkScER6ISMIBtLAG-18" target="7euLMkScER6ISMIBtLAG-20" edge="1">
          <mxGeometry relative="1" as="geometry" />
        </mxCell>
        <mxCell id="7euLMkScER6ISMIBtLAG-35" value="" style="edgeStyle=orthogonalEdgeStyle;rounded=0;orthogonalLoop=1;jettySize=auto;html=1;" parent="1" source="7euLMkScER6ISMIBtLAG-18" target="7euLMkScER6ISMIBtLAG-31" edge="1">
          <mxGeometry relative="1" as="geometry" />
        </mxCell>
        <mxCell id="7euLMkScER6ISMIBtLAG-18" value="คะแนน &amp;gt;= 50" style="rhombus;whiteSpace=wrap;html=1;" parent="1" vertex="1">
          <mxGeometry x="291.25" y="640" width="87.5" height="70" as="geometry" />
        </mxCell>
        <mxCell id="7euLMkScER6ISMIBtLAG-34" value="" style="edgeStyle=orthogonalEdgeStyle;rounded=0;orthogonalLoop=1;jettySize=auto;html=1;" parent="1" source="7euLMkScER6ISMIBtLAG-20" target="7euLMkScER6ISMIBtLAG-32" edge="1">
          <mxGeometry relative="1" as="geometry" />
        </mxCell>
        <mxCell id="7euLMkScER6ISMIBtLAG-20" value="ค่าอื่นๆ" style="rhombus;whiteSpace=wrap;html=1;" parent="1" vertex="1">
          <mxGeometry x="291.25" y="730" width="87.5" height="70" as="geometry" />
        </mxCell>
        <mxCell id="7euLMkScER6ISMIBtLAG-62" style="edgeStyle=orthogonalEdgeStyle;rounded=0;orthogonalLoop=1;jettySize=auto;html=1;entryX=0.5;entryY=0;entryDx=0;entryDy=0;" parent="1" source="7euLMkScER6ISMIBtLAG-22" target="7euLMkScER6ISMIBtLAG-45" edge="1">
          <mxGeometry relative="1" as="geometry" />
        </mxCell>
        <mxCell id="7euLMkScER6ISMIBtLAG-22" value="&quot;A !&quot;" style="shape=parallelogram;perimeter=parallelogramPerimeter;whiteSpace=wrap;html=1;fixedSize=1;" parent="1" vertex="1">
          <mxGeometry x="432.5" y="122.5" width="97.5" height="25" as="geometry" />
        </mxCell>
        <mxCell id="7euLMkScER6ISMIBtLAG-46" value="" style="edgeStyle=orthogonalEdgeStyle;rounded=0;orthogonalLoop=1;jettySize=auto;html=1;" parent="1" source="7euLMkScER6ISMIBtLAG-24" target="7euLMkScER6ISMIBtLAG-45" edge="1">
          <mxGeometry relative="1" as="geometry" />
        </mxCell>
        <mxCell id="7euLMkScER6ISMIBtLAG-24" value="&quot;B+ !&quot;" style="shape=parallelogram;perimeter=parallelogramPerimeter;whiteSpace=wrap;html=1;fixedSize=1;" parent="1" vertex="1">
          <mxGeometry x="432.5" y="212.5" width="97.5" height="25" as="geometry" />
        </mxCell>
        <mxCell id="7euLMkScER6ISMIBtLAG-61" value="" style="edgeStyle=orthogonalEdgeStyle;rounded=0;orthogonalLoop=1;jettySize=auto;html=1;" parent="1" source="7euLMkScER6ISMIBtLAG-26" target="7euLMkScER6ISMIBtLAG-48" edge="1">
          <mxGeometry relative="1" as="geometry" />
        </mxCell>
        <mxCell id="7euLMkScER6ISMIBtLAG-26" value="&quot;B !&quot;" style="shape=parallelogram;perimeter=parallelogramPerimeter;whiteSpace=wrap;html=1;fixedSize=1;" parent="1" vertex="1">
          <mxGeometry x="432.5" y="302.5" width="97.5" height="25" as="geometry" />
        </mxCell>
        <mxCell id="7euLMkScER6ISMIBtLAG-60" value="" style="edgeStyle=orthogonalEdgeStyle;rounded=0;orthogonalLoop=1;jettySize=auto;html=1;" parent="1" source="7euLMkScER6ISMIBtLAG-27" target="7euLMkScER6ISMIBtLAG-50" edge="1">
          <mxGeometry relative="1" as="geometry" />
        </mxCell>
        <mxCell id="7euLMkScER6ISMIBtLAG-27" value="&quot;C+ !&quot;" style="shape=parallelogram;perimeter=parallelogramPerimeter;whiteSpace=wrap;html=1;fixedSize=1;" parent="1" vertex="1">
          <mxGeometry x="432.5" y="392.5" width="97.5" height="25" as="geometry" />
        </mxCell>
        <mxCell id="7euLMkScER6ISMIBtLAG-59" value="" style="edgeStyle=orthogonalEdgeStyle;rounded=0;orthogonalLoop=1;jettySize=auto;html=1;" parent="1" source="7euLMkScER6ISMIBtLAG-28" target="7euLMkScER6ISMIBtLAG-52" edge="1">
          <mxGeometry relative="1" as="geometry" />
        </mxCell>
        <mxCell id="7euLMkScER6ISMIBtLAG-28" value="&quot;C !&quot;" style="shape=parallelogram;perimeter=parallelogramPerimeter;whiteSpace=wrap;html=1;fixedSize=1;" parent="1" vertex="1">
          <mxGeometry x="432.5" y="482.5" width="97.5" height="25" as="geometry" />
        </mxCell>
        <mxCell id="7euLMkScER6ISMIBtLAG-58" value="" style="edgeStyle=orthogonalEdgeStyle;rounded=0;orthogonalLoop=1;jettySize=auto;html=1;" parent="1" source="7euLMkScER6ISMIBtLAG-29" target="7euLMkScER6ISMIBtLAG-53" edge="1">
          <mxGeometry relative="1" as="geometry" />
        </mxCell>
        <mxCell id="7euLMkScER6ISMIBtLAG-29" value="&quot;D+ !&quot;" style="shape=parallelogram;perimeter=parallelogramPerimeter;whiteSpace=wrap;html=1;fixedSize=1;" parent="1" vertex="1">
          <mxGeometry x="432.5" y="572.5" width="97.5" height="25" as="geometry" />
        </mxCell>
        <mxCell id="7euLMkScER6ISMIBtLAG-57" value="" style="edgeStyle=orthogonalEdgeStyle;rounded=0;orthogonalLoop=1;jettySize=auto;html=1;" parent="1" source="7euLMkScER6ISMIBtLAG-31" target="7euLMkScER6ISMIBtLAG-54" edge="1">
          <mxGeometry relative="1" as="geometry" />
        </mxCell>
        <mxCell id="7euLMkScER6ISMIBtLAG-31" value="&quot;D !&quot;" style="shape=parallelogram;perimeter=parallelogramPerimeter;whiteSpace=wrap;html=1;fixedSize=1;" parent="1" vertex="1">
          <mxGeometry x="432.5" y="662.5" width="97.5" height="25" as="geometry" />
        </mxCell>
        <mxCell id="7euLMkScER6ISMIBtLAG-56" value="" style="edgeStyle=orthogonalEdgeStyle;rounded=0;orthogonalLoop=1;jettySize=auto;html=1;" parent="1" source="7euLMkScER6ISMIBtLAG-32" target="7euLMkScER6ISMIBtLAG-55" edge="1">
          <mxGeometry relative="1" as="geometry" />
        </mxCell>
        <mxCell id="7euLMkScER6ISMIBtLAG-32" value="&quot;F !&quot;" style="shape=parallelogram;perimeter=parallelogramPerimeter;whiteSpace=wrap;html=1;fixedSize=1;" parent="1" vertex="1">
          <mxGeometry x="425" y="752.5" width="97.5" height="25" as="geometry" />
        </mxCell>
        <mxCell id="7euLMkScER6ISMIBtLAG-63" value="" style="edgeStyle=orthogonalEdgeStyle;rounded=0;orthogonalLoop=1;jettySize=auto;html=1;" parent="1" source="7euLMkScER6ISMIBtLAG-45" target="7euLMkScER6ISMIBtLAG-48" edge="1">
          <mxGeometry relative="1" as="geometry" />
        </mxCell>
        <mxCell id="7euLMkScER6ISMIBtLAG-45" value="" style="ellipse;whiteSpace=wrap;html=1;" parent="1" vertex="1">
          <mxGeometry x="545" y="210" width="30" height="30" as="geometry" />
        </mxCell>
        <mxCell id="7euLMkScER6ISMIBtLAG-64" value="" style="edgeStyle=orthogonalEdgeStyle;rounded=0;orthogonalLoop=1;jettySize=auto;html=1;" parent="1" source="7euLMkScER6ISMIBtLAG-48" target="7euLMkScER6ISMIBtLAG-50" edge="1">
          <mxGeometry relative="1" as="geometry" />
        </mxCell>
        <mxCell id="7euLMkScER6ISMIBtLAG-48" value="" style="ellipse;whiteSpace=wrap;html=1;" parent="1" vertex="1">
          <mxGeometry x="545" y="300" width="30" height="30" as="geometry" />
        </mxCell>
        <mxCell id="7euLMkScER6ISMIBtLAG-65" value="" style="edgeStyle=orthogonalEdgeStyle;rounded=0;orthogonalLoop=1;jettySize=auto;html=1;" parent="1" source="7euLMkScER6ISMIBtLAG-50" target="7euLMkScER6ISMIBtLAG-52" edge="1">
          <mxGeometry relative="1" as="geometry" />
        </mxCell>
        <mxCell id="7euLMkScER6ISMIBtLAG-50" value="" style="ellipse;whiteSpace=wrap;html=1;" parent="1" vertex="1">
          <mxGeometry x="545" y="390" width="30" height="30" as="geometry" />
        </mxCell>
        <mxCell id="7euLMkScER6ISMIBtLAG-66" value="" style="edgeStyle=orthogonalEdgeStyle;rounded=0;orthogonalLoop=1;jettySize=auto;html=1;" parent="1" source="7euLMkScER6ISMIBtLAG-52" target="7euLMkScER6ISMIBtLAG-53" edge="1">
          <mxGeometry relative="1" as="geometry" />
        </mxCell>
        <mxCell id="7euLMkScER6ISMIBtLAG-52" value="" style="ellipse;whiteSpace=wrap;html=1;" parent="1" vertex="1">
          <mxGeometry x="545" y="480" width="30" height="30" as="geometry" />
        </mxCell>
        <mxCell id="7euLMkScER6ISMIBtLAG-67" value="" style="edgeStyle=orthogonalEdgeStyle;rounded=0;orthogonalLoop=1;jettySize=auto;html=1;" parent="1" source="7euLMkScER6ISMIBtLAG-53" target="7euLMkScER6ISMIBtLAG-54" edge="1">
          <mxGeometry relative="1" as="geometry" />
        </mxCell>
        <mxCell id="7euLMkScER6ISMIBtLAG-53" value="" style="ellipse;whiteSpace=wrap;html=1;" parent="1" vertex="1">
          <mxGeometry x="545" y="570" width="30" height="30" as="geometry" />
        </mxCell>
        <mxCell id="7euLMkScER6ISMIBtLAG-68" value="" style="edgeStyle=orthogonalEdgeStyle;rounded=0;orthogonalLoop=1;jettySize=auto;html=1;" parent="1" source="7euLMkScER6ISMIBtLAG-54" target="7euLMkScER6ISMIBtLAG-55" edge="1">
          <mxGeometry relative="1" as="geometry" />
        </mxCell>
        <mxCell id="7euLMkScER6ISMIBtLAG-54" value="" style="ellipse;whiteSpace=wrap;html=1;" parent="1" vertex="1">
          <mxGeometry x="545" y="660" width="30" height="30" as="geometry" />
        </mxCell>
        <mxCell id="7euLMkScER6ISMIBtLAG-69" value="" style="edgeStyle=orthogonalEdgeStyle;rounded=0;orthogonalLoop=1;jettySize=auto;html=1;" parent="1" source="7euLMkScER6ISMIBtLAG-55" target="UBjv-P3hsI7ne-E2DAJY-3" edge="1">
          <mxGeometry relative="1" as="geometry" />
        </mxCell>
        <mxCell id="7euLMkScER6ISMIBtLAG-55" value="" style="ellipse;whiteSpace=wrap;html=1;" parent="1" vertex="1">
          <mxGeometry x="545" y="750" width="30" height="30" as="geometry" />
        </mxCell>
      </root>
    </mxGraphModel>
  </diagram>
</mxfile>
